SplineFontDB: 3.0
FontName: Amatoro
FullName: Amatoro
FamilyName: Amatoro
Weight: Medium
Copyright: Copyright (c) 2011 Barry Schwartz
UComments: "Scan 11-pt Baskerville at 6400x6400 dpi.+AAoA-Cut samples 978 pixels high; import them without scaling." 
Version: 0.1
ItalicAngle: 0
UnderlinePosition: -100
UnderlineWidth: 50
Ascent: 800
Descent: 200
LayerCount: 3
Layer: 0 0 "Back"  1
Layer: 1 0 "Fore"  0
Layer: 2 0 "backup"  0
NeedsXUIDChange: 1
XUID: [1021 658 797806517 1669643]
FSType: 8
OS2Version: 0
OS2_WeightWidthSlopeOnly: 0
OS2_UseTypoMetrics: 1
CreationTime: 1297644581
ModificationTime: 1297715193
PfmFamily: 17
TTFWeight: 500
TTFWidth: 5
LineGap: 90
VLineGap: 0
OS2TypoAscent: 0
OS2TypoAOffset: 1
OS2TypoDescent: 0
OS2TypoDOffset: 1
OS2TypoLinegap: 90
OS2WinAscent: 0
OS2WinAOffset: 1
OS2WinDescent: 0
OS2WinDOffset: 1
HheadAscent: 0
HheadAOffset: 1
HheadDescent: 0
HheadDOffset: 1
OS2Vendor: 'PfEd'
MarkAttachClasses: 1
DEI: 91125
LangName: 1033 
Encoding: UnicodeBmp
UnicodeInterp: none
NameList: Adobe Glyph List
DisplaySize: -48
AntiAlias: 1
FitToEm: 1
WinInfo: 72 12 6
BeginPrivate: 0
EndPrivate
BeginChars: 65536 53

StartChar: a
Encoding: 97 97 0
Width: 498
VWidth: 0
Flags: HW
HStem: -12 46<140.45 259.479 399.592 449.775> 301 21G<95 138.5> 394 35<170.406 295.85>
VStem: 40 87<47.4749 139.081> 322 76<75.8508 237.994 269.814 371.597>
LayerCount: 3
Fore
SplineSet
461 65 m 0
 472 65 480 59 480 52 c 0
 480 21 444 -13 405 -13 c 0
 332 -13 327 41 317 41 c 0
 307 41 244 -16 160 -16 c 0
 88 -16 40 20 40 82 c 0
 40 171 178 229 289 266 c 0
 310 273 322 274 322 292 c 2
 322 303 l 2
 322 371 285 395 232 395 c 0
 114 395 175 301 103 301 c 0
 83 301 70 314 70 336 c 0
 70 392 142 429 245 429 c 0
 325 429 398 391 398 312 c 0
 398 219 393 97 393 74 c 0
 393 49 406 33 422 33 c 0
 448 33 450 65 461 65 c 0
188 32 m 0
 248 32 318 83 318 92 c 0
 319 136 322 211 322 224 c 0
 322 235 321 240 315 240 c 0
 306 240 290 235 281 231 c 0
 214 207 127 157 127 90 c 0
 127 59 159 32 188 32 c 0
EndSplineSet
EndChar

StartChar: b
Encoding: 98 98 1
Width: 522
VWidth: 0
Flags: HW
HStem: -23 41<199.962 332.734> 389 34<204.154 334.859> 621 27<7.00882 52.7734>
VStem: 59 80<68.4857 346.203 364 534.036> 66 73<68.4857 346.203 364 615.928> 407 86<105.669 307.344>
LayerCount: 3
Fore
SplineSet
7 634 m 0xec
 7 640 9 649 15 649 c 0
 76 654 127 667 135 667 c 0
 139 667 145 666 145 657 c 0
 145 627 141 583 141 384 c 0
 141 371 142 365 152 373 c 0
 184 399 225 423 287 423 c 0
 401 423 493 336 493 212 c 0
 493 86 409 -22 291 -22 c 0
 190 -22 152 43 138 43 c 0
 112 43 104 -18 78 -18 c 0
 62 -18 59 0 59 14 c 0xf4
 59 40 66 122 66 554 c 0
 66 600 58 621 17 621 c 0
 10 621 7 628 7 634 c 0xec
407 202 m 0
 407 301 364 389 273 389 c 0
 208 389 139 342 139 311 c 2
 141 105 l 2
 141 73 210 18 266 18 c 0
 354 18 407 100 407 202 c 0
EndSplineSet
Layer: 2
SplineSet
7 634 m 4xec
 7 640 9 649 15 649 c 4
 76 654 127 667 135 667 c 4
 139 667 145 666 145 657 c 4
 145 626 141 580 141 364 c 5
 174 393 218 423 287 423 c 4
 401 423 493 336 493 212 c 4
 493 86 409 -22 291 -22 c 4
 190 -22 152 43 138 43 c 4
 112 43 104 -18 78 -18 c 4
 62 -18 59 0 59 14 c 4xf4
 59 40 66 122 66 554 c 4
 66 600 58 621 17 621 c 4
 10 621 7 628 7 634 c 4xec
407 202 m 4
 407 301 364 389 273 389 c 4
 208 389 139 342 139 311 c 6
 141 105 l 6
 141 73 210 18 266 18 c 4
 354 18 407 100 407 202 c 4
EndSplineSet
EndChar

StartChar: c
Encoding: 99 99 2
Width: 436
VWidth: 0
Flags: HW
HStem: -15 42<185.671 327.637> 299 21G<343.5 363.5> 299 21G<343.5 363.5> 398 32<187.46 289.834>
VStem: 26 87<108.094 309.559> 318 74<301.989 375.821>
LayerCount: 3
Fore
SplineSet
113 205 m 0xdc
 113 94 181 27 249 27 c 0
 358 27 373 107 391 107 c 0
 403 107 412 97 412 88 c 0
 412 82 368 -15 228 -15 c 0
 115 -15 26 72 26 204 c 0
 26 346 124 430 240 430 c 0
 334 430 392 388 392 335 c 0
 392 310 373 299 354 299 c 0
 333 299 320 313 318 326 c 0
 314 348 302 398 245 398 c 0
 158 398 113 313 113 205 c 0xdc
EndSplineSet
Layer: 2
SplineSet
113 205 m 0
 113 94 181 27 249 27 c 0
 310 27 345 52 366 79 c 0
 377 94 384 106 391 106 c 0
 411 106 413 98 413 88 c 0
 413 82 401 67 396 61 c 0
 357 14 319 -15 228 -15 c 0
 115.033793904 -15 25.8369528282 71.7492856421 25.8369528282 204.207442092 c 0
 25.8369528282 346 124 430 240 430 c 0
 334 430 392 388 392 335 c 0
 392 310 373 299 354 299 c 0
 333 299 320 313 318 326 c 0
 314 348 302 398 245 398 c 0
 158 398 113 313 113 205 c 0
EndSplineSet
EndChar

StartChar: d
Encoding: 100 100 3
Width: 542
VWidth: 0
Flags: HW
LayerCount: 3
Fore
SplineSet
232 -14 m 0
 99 -14 28 86 28 202 c 0
 28 327 109 424 232 424 c 0
 280 424 327 407 368 375 c 0
 377 368 379 369 379 381 c 0
 379 543 378 563 377 587 c 0
 376 621 350 624 327 624 c 0
 322 624 317 626 317 636 c 0
 317 648 323 651 328 651 c 0
 387 651 436 666 443 666 c 0
 448 666 454 664 454 655 c 0
 454 616 450 244 450 85 c 0
 450 53 474 32 509 28 c 0
 513 28 517 26 517 17 c 0
 517 8 514 2 511 2 c 0
 473 0 411 -11 402 -11 c 0
 384 -11 383 4 382 49 c 0
 382 60 379 58 373 52 c 0
 338 14 295 -14 232 -14 c 0
111 196 m 0
 111 111 167 28 248 28 c 0
 333 28 379 92 379 115 c 2
 379 323 l 2
 379 342 325 383 256 383 c 0
 155 383 111 308 111 196 c 0
EndSplineSet
Layer: 2
SplineSet
232 -14 m 4
 99 -14 28 86 28 202 c 4
 28 327 109 424 232 424 c 4
 284 424 336 404 379 366 c 5
 379 542 378 562 377 587 c 4
 376 621 350 624 327 624 c 4
 322 624 317 626 317 636 c 4
 317 648 323 651 328 651 c 4
 387 651 436 666 443 666 c 4
 448 666 454 664 454 655 c 4
 454 616 450 244 450 85 c 4
 450 53 474 32 509 28 c 4
 513 28 517 26 517 17 c 4
 517 8 514 2 511 2 c 4
 473 0 411 -11 402 -11 c 4
 382 -11 384 7 382 62 c 5
 346 19 301 -14 232 -14 c 4
111 196 m 4
 111 111 167 28 248 28 c 4
 333 28 379 92 379 115 c 6
 379 323 l 6
 379 342 325 383 256 383 c 4
 155 383 111 308 111 196 c 4
EndSplineSet
EndChar

StartChar: e
Encoding: 101 101 4
Width: 434
VWidth: 0
Flags: W
HStem: -15 37<191.242 317.549> 269 25<129.056 309.147> 396 29<178.389 267.858>
VStem: 27 79<112.151 266.283> 310 95<275.5 346.041>
LayerCount: 3
Fore
SplineSet
27 207 m 0
 27 334 111 425 227 425 c 0
 318 425 380 386 401 300 c 0
 403 292 405 286 405 281 c 0
 405 270 398 264 379 264 c 0
 293 264 140 269 130 269 c 0
 108 269 106 228 106 207 c 0
 106 120 159 22 256 22 c 0
 301 22 336 47 358 69 c 0
 375 85 380 100 387 100 c 0
 398 100 407 90 407 84 c 0
 407 63 336 -15 236 -15 c 0
 110 -15 27 92 27 207 c 0
310 314 m 0
 310 342 281 396 221 396 c 0
 160 396 129 328 129 308 c 0
 129 301 132 294 141 294 c 2
 272 294 l 2
 301 294 310 296 310 314 c 0
EndSplineSet
Layer: 2
SplineSet
27 207 m 4
 27 334 111 425 227 425 c 4
 318 425 380 386 401 300 c 4
 403 292 405 286 405 281 c 4
 405 270 398 264 379 264 c 4
 293 264 140 269 130 269 c 4
 108 269 106 228 106 207 c 4
 106 120 159 22 258 22 c 4
 316 22 359 66 372 85 c 4
 376 91 385 102 394 98 c 4
 404 94 407 89 407 83 c 4
 407 75 400 66 394 59 c 4
 380 42 333 -15 236 -15 c 4
 105 -15 27 92 27 207 c 4
310 314 m 4
 310 342 281 396 221 396 c 4
 160 396 129 328 129 308 c 4
 129 301 132 294 141 294 c 6
 272 294 l 6
 301 294 310 296 310 314 c 4
EndSplineSet
EndChar

StartChar: f
Encoding: 102 102 6
Width: 286
VWidth: 0
Flags: W
HStem: -3 32<21.0015 84.9289 178.312 240.985> 378 28<25.0074 96.9909 168.203 258.986> 638 29<208.433 291.994>
VStem: 97 71<36.3313 378.993 405.007 559.048> 278 75<563.468 633.995>
LayerCount: 3
Fore
SplineSet
353 597 m 0
 353 577 342 560 315 560 c 0
 289 560 282 583 278 604 c 0
 276 616 266 638 239 638 c 0
 178 638 168 524 168 460 c 2
 168 424 l 2
 168 414 171 405 186 405 c 0
 209 405 230 406 249 406 c 0
 256 406 259 403 259 391 c 0
 259 381 254 378 249 378 c 0
 237 378 205 379 187 379 c 0
 168 379 168 377 168 363 c 2
 168 79 l 2
 168 51 177 29 230 29 c 0
 236 29 241 28 241 12 c 0
 241 -1 236 -3 229 -3 c 0
 218 -3 169 0 134 0 c 2
 122 0 l 2
 92 0 41 -3 33 -3 c 0
 21 -3 21 3 21 13 c 0
 21 21 23 29 34 29 c 0
 90 29 91 49 92 80 c 0
 94 178 97 263 97 362 c 0
 97 370 97 379 86 379 c 0
 69 379 51 378 34 378 c 0
 27 378 25 386 25 391 c 0
 25 400 26 406 36 406 c 0
 50 406 64 405 79 405 c 0
 95 405 97 409 97 417 c 2
 97 440 l 2
 97 579 163 667 268 667 c 0
 315 667 353 634 353 597 c 0
EndSplineSet
EndChar

StartChar: g
Encoding: 103 103 7
Width: 499
VWidth: 0
Flags: HW
HStem: -239 39<125.625 322.923> -15 76<96.9252 342.352> 127 31<159.961 260.457> 351 72<394.982 479.816> 393 33<164.265 265.083>
VStem: 25 46<-158.168 -53.9856> 38 84<203.858 351.044> 45 50<47.5 119.526> 303 84<205.664 356.21> 378 58<-156.199 -47.4067>
LayerCount: 3
Fore
SplineSet
485 382 m 0xf240
 485 364 472 351 453 351 c 0
 433 351 419 374 398 374 c 0
 388 374 376 365 376 352 c 0
 376 350 376 348 377 346 c 0
 385 324 388 295 388 284 c 0
 388 206 330 127 208 127 c 0
 197 127 175 132 152 132 c 0
 129 132 95 115 95 92 c 0xf180
 95 63 135 62 163 61 c 0
 215 60 241 58 289 54 c 0
 369 48 436 -5 436 -82 c 0
 436 -183 337 -239 232 -239 c 0
 137 -239 25 -200 25 -100 c 0
 25 -65 65 -27 94 -27 c 0
 100 -27 109 -29 109 -36 c 0
 109 -41 71 -62 71 -109 c 0xf440
 71 -184 176 -200 224 -200 c 0
 301 -200 378 -175 378 -99 c 0
 378 -17 278 -15 202 -15 c 2
 162 -15 l 2
 151 -15 136 -15 112 -14 c 0
 80 -12 45 36 45 59 c 0
 45 108 68 122 99 148 c 0
 107 154 103 162 95 168 c 0xf140
 77 183 39 211 39 273 c 0
 39 364 113 425 201 425 c 0xea
 291 425 340 384 344 384 c 0
 352 384 383 423 436 423 c 0
 461 423 485 408 485 382 c 0xf240
219 393 m 0xea80
 145 393 122 331 122 270 c 0
 122 211 146 158 212 158 c 0
 266 158 303 194 303 274 c 0
 303 338 277 393 219 393 c 0xea80
EndSplineSet
EndChar

StartChar: h
Encoding: 104 104 8
Width: 550
VWidth: 0
Flags: HWO
HStem: -2 31<26.0089 82.0969 177.006 239.996 313.006 370.502 469.421 534.996> 383 39<245.639 352.56> 620 28<30.0029 82.0813>
VStem: 95 70<36.7188 322.236 357.552 614.561> 385 71<38.1545 351.847>
LayerCount: 3
Fore
SplineSet
313 14 m 0
 313 29 321 29 326 29 c 0
 380 29 385 60 385 121 c 0
 385 184 383 280 382 297 c 0
 380 339 359 383 296 383 c 0
 232 383 165 306 165 289 c 2
 165 198 l 2
 165 150 165 99 166 83 c 0
 169 37 184 29 232 29 c 0
 240 29 240 20 240 12 c 0
 240 -1 235 -2 222 -2 c 0
 212 -2 188 0 145 0 c 2
 122 0 l 2
 85 0 55 -2 40 -2 c 0
 29 -2 26 0 26 13 c 0
 26 26 31 29 37 29 c 0
 83 29 91 50 92 81 c 0
 95 183 95 250 95 352 c 2
 95 545 l 2
 95 554 95 563 94 572 c 0
 90 605 85 620 40 620 c 0
 35 620 31 622 31 634 c 0
 31 644 34 648 40 648 c 0
 92 648 152 664 164 664 c 0
 170 664 172 659 172 651 c 0
 172 628 165 483 165 350 c 0
 165 339 167 333 176 345 c 0
 198 372 248 422 318 422 c 0
 402 422 456 359 456 283 c 2
 456 91 l 2
 456 46 472 29 523 29 c 0
 529 29 535 27 535 16 c 0
 535 2 535 -2 524 -2 c 0
 510 -2 482 0 438 0 c 2
 410 0 l 2
 365 0 336 -2 327 -2 c 0
 320 -2 313 -1 313 14 c 0
EndSplineSet
EndChar

StartChar: i
Encoding: 105 105 9
Width: 400
VWidth: 0
Flags: W
HStem: 154 144<155 257>
VStem: 134 144<175 277>
LayerCount: 3
Fore
SplineSet
134 226 m 4
 134 266 166 298 206 298 c 4
 246 298 278 266 278 226 c 4
 278 186 246 154 206 154 c 4
 166 154 134 186 134 226 c 4
EndSplineSet
EndChar

StartChar: j
Encoding: 106 106 10
Width: 400
VWidth: 0
Flags: W
HStem: 154 144<155 257>
VStem: 134 144<175 277>
LayerCount: 3
Fore
SplineSet
134 226 m 4
 134 266 166 298 206 298 c 4
 246 298 278 266 278 226 c 4
 278 186 246 154 206 154 c 4
 166 154 134 186 134 226 c 4
EndSplineSet
EndChar

StartChar: k
Encoding: 107 107 11
Width: 400
VWidth: 0
Flags: W
HStem: 154 144<155 257>
VStem: 134 144<175 277>
LayerCount: 3
Fore
SplineSet
134 226 m 4
 134 266 166 298 206 298 c 4
 246 298 278 266 278 226 c 4
 278 186 246 154 206 154 c 4
 166 154 134 186 134 226 c 4
EndSplineSet
EndChar

StartChar: l
Encoding: 108 108 12
Width: 400
VWidth: 0
Flags: W
HStem: 154 144<155 257>
VStem: 134 144<175 277>
LayerCount: 3
Fore
SplineSet
134 226 m 4
 134 266 166 298 206 298 c 4
 246 298 278 266 278 226 c 4
 278 186 246 154 206 154 c 4
 166 154 134 186 134 226 c 4
EndSplineSet
EndChar

StartChar: m
Encoding: 109 109 13
Width: 400
VWidth: 0
Flags: W
HStem: 154 144<155 257>
VStem: 134 144<175 277>
LayerCount: 3
Fore
SplineSet
134 226 m 4
 134 266 166 298 206 298 c 4
 246 298 278 266 278 226 c 4
 278 186 246 154 206 154 c 4
 166 154 134 186 134 226 c 4
EndSplineSet
EndChar

StartChar: n
Encoding: 110 110 14
Width: 400
VWidth: 0
Flags: W
HStem: 154 144<155 257>
VStem: 134 144<175 277>
LayerCount: 3
Fore
SplineSet
134 226 m 4
 134 266 166 298 206 298 c 4
 246 298 278 266 278 226 c 4
 278 186 246 154 206 154 c 4
 166 154 134 186 134 226 c 4
EndSplineSet
EndChar

StartChar: o
Encoding: 111 111 15
Width: 400
VWidth: 0
Flags: W
HStem: 154 144<155 257>
VStem: 134 144<175 277>
LayerCount: 3
Fore
SplineSet
134 226 m 4
 134 266 166 298 206 298 c 4
 246 298 278 266 278 226 c 4
 278 186 246 154 206 154 c 4
 166 154 134 186 134 226 c 4
EndSplineSet
EndChar

StartChar: p
Encoding: 112 112 16
Width: 400
VWidth: 0
Flags: W
HStem: 154 144<155 257>
VStem: 134 144<175 277>
LayerCount: 3
Fore
SplineSet
134 226 m 4
 134 266 166 298 206 298 c 4
 246 298 278 266 278 226 c 4
 278 186 246 154 206 154 c 4
 166 154 134 186 134 226 c 4
EndSplineSet
EndChar

StartChar: q
Encoding: 113 113 17
Width: 400
VWidth: 0
Flags: W
HStem: 154 144<155 257>
VStem: 134 144<175 277>
LayerCount: 3
Fore
SplineSet
134 226 m 4
 134 266 166 298 206 298 c 4
 246 298 278 266 278 226 c 4
 278 186 246 154 206 154 c 4
 166 154 134 186 134 226 c 4
EndSplineSet
EndChar

StartChar: r
Encoding: 114 114 18
Width: 400
VWidth: 0
Flags: W
HStem: 154 144<155 257>
VStem: 134 144<175 277>
LayerCount: 3
Fore
SplineSet
134 226 m 4
 134 266 166 298 206 298 c 4
 246 298 278 266 278 226 c 4
 278 186 246 154 206 154 c 4
 166 154 134 186 134 226 c 4
EndSplineSet
EndChar

StartChar: s
Encoding: 115 115 19
Width: 400
VWidth: 0
Flags: W
HStem: 154 144<155 257>
VStem: 134 144<175 277>
LayerCount: 3
Fore
SplineSet
134 226 m 4
 134 266 166 298 206 298 c 4
 246 298 278 266 278 226 c 4
 278 186 246 154 206 154 c 4
 166 154 134 186 134 226 c 4
EndSplineSet
EndChar

StartChar: t
Encoding: 116 116 20
Width: 400
VWidth: 0
Flags: W
HStem: 154 144<155 257>
VStem: 134 144<175 277>
LayerCount: 3
Fore
SplineSet
134 226 m 4
 134 266 166 298 206 298 c 4
 246 298 278 266 278 226 c 4
 278 186 246 154 206 154 c 4
 166 154 134 186 134 226 c 4
EndSplineSet
EndChar

StartChar: u
Encoding: 117 117 21
Width: 400
VWidth: 0
Flags: W
HStem: 154 144<155 257>
VStem: 134 144<175 277>
LayerCount: 3
Fore
SplineSet
134 226 m 4
 134 266 166 298 206 298 c 4
 246 298 278 266 278 226 c 4
 278 186 246 154 206 154 c 4
 166 154 134 186 134 226 c 4
EndSplineSet
EndChar

StartChar: v
Encoding: 118 118 22
Width: 400
VWidth: 0
Flags: W
HStem: 154 144<155 257>
VStem: 134 144<175 277>
LayerCount: 3
Fore
SplineSet
134 226 m 4
 134 266 166 298 206 298 c 4
 246 298 278 266 278 226 c 4
 278 186 246 154 206 154 c 4
 166 154 134 186 134 226 c 4
EndSplineSet
EndChar

StartChar: w
Encoding: 119 119 23
Width: 400
VWidth: 0
Flags: W
HStem: 154 144<155 257>
VStem: 134 144<175 277>
LayerCount: 3
Fore
SplineSet
134 226 m 4
 134 266 166 298 206 298 c 4
 246 298 278 266 278 226 c 4
 278 186 246 154 206 154 c 4
 166 154 134 186 134 226 c 4
EndSplineSet
EndChar

StartChar: x
Encoding: 120 120 24
Width: 400
VWidth: 0
Flags: W
HStem: 154 144<155 257>
VStem: 134 144<175 277>
LayerCount: 3
Fore
SplineSet
134 226 m 4
 134 266 166 298 206 298 c 4
 246 298 278 266 278 226 c 4
 278 186 246 154 206 154 c 4
 166 154 134 186 134 226 c 4
EndSplineSet
EndChar

StartChar: y
Encoding: 121 121 25
Width: 400
VWidth: 0
Flags: W
HStem: 154 144<155 257>
VStem: 134 144<175 277>
LayerCount: 3
Fore
SplineSet
134 226 m 4
 134 266 166 298 206 298 c 4
 246 298 278 266 278 226 c 4
 278 186 246 154 206 154 c 4
 166 154 134 186 134 226 c 4
EndSplineSet
EndChar

StartChar: z
Encoding: 122 122 26
Width: 400
VWidth: 0
Flags: W
HStem: 154 144<155 257>
VStem: 134 144<175 277>
LayerCount: 3
Fore
SplineSet
134 226 m 4
 134 266 166 298 206 298 c 4
 246 298 278 266 278 226 c 4
 278 186 246 154 206 154 c 4
 166 154 134 186 134 226 c 4
EndSplineSet
EndChar

